<?xml version="1.0" encoding="utf-8"?>
<svg version="1.1" id="Layer_1"
xmlns="http://www.w3.org/2000/svg"
xmlns:xlink="http://www.w3.org/1999/xlink"
width="256px" height="256px"
xml:space="preserve">
<g id="PathID_1" transform="matrix(1.32919, -1.32919, 1.32919, 1.32919, -236.6, 155.55)" opacity="1">
<path style="fill:#FFFFFF;fill-opacity:1" d="M63.1 26.2Q61 31.5 57.85 36.3L35.15 13.3Q37.5 7.45 37.55 0.65L63.1 26.2" />
</g>
<g id="PathID_2" transform="matrix(1.32919, -1.32919, 1.32919, 1.32919, -236.6, 155.55)" opacity="1">
</g>
<g id="PathID_3" transform="matrix(1.32919, -1.32919, 1.32919, 1.32919, -236.6, 155.55)" opacity="1">
<path style="fill:#FFFFFF;fill-opacity:1" d="M-0.7 -37.6Q-7.2 -37.55 -12.85 -35.35L-35.55 -58.35Q-31.1 -61.2 -26.25 -63.15L-0.7 -37.6" />
</g>
<g id="PathID_4" transform="matrix(1.32919, -1.32919, 1.32919, 1.32919, -236.6, 155.55)" opacity="1">
</g>
<g id="PathID_5" transform="matrix(0.695692, 0, 0, 0.695692, 585.45, 215.45)" opacity="1">
<path style="fill:#FFFFFF;fill-opacity:1" d="M32 0L23.45 0L23.45 -16.15L10.35 -16.15L10.35 0L1.75 0L1.75 -37.1L10.35 -37.1L10.35 -23.45L23.45 -23.45L23.45 -37.1L32 -37.1L32 0" />
</g>
<g id="PathID_6" transform="matrix(0.695692, 0, 0, 0.695692, 585.45, 215.45)" opacity="1">
</g>
<g id="PathID_7" transform="matrix(0.695692, 0, 0, 0.695692, 609.65, 215.45)" opacity="1">
<path style="fill:#FFFFFF;fill-opacity:1" d="M26.7 1Q26.7 6.55 22.65 9.95Q19.05 12.9 13.95 12.9Q8.95 12.9 5.45 9.95Q1.65 6.65 1.65 0.45L9.25 0.45Q9.25 3.3 10.6 4.6Q11.75 5.75 13.55 5.75Q15.55 5.75 17.2 4.25Q18.65 2.85 18.65 0.3L18.65 -3.3Q18.85 -1.65 16.7 -0.55Q14.6 0.5 12 0.5Q7.85 0.5 5.85 -1.8Q1.65 -4.7 1.65 -9.6L1.65 -27.75L9.75 -27.75L9.75 -10.7Q9.75 -6.2 13.75 -6.2Q15.95 -6.2 17.3 -7.45Q18.65 -8.75 18.65 -10.7L18.65 -27.75L26.7 -27.75L26.7 1" />
</g>
<g id="PathID_8" transform="matrix(0.695692, 0, 0, 0.695692, 609.65, 215.45)" opacity="1">
</g>
<g id="PathID_9" transform="matrix(0.695692, 0, 0, 0.695692, 629.8, 215.45)" opacity="1">
<path style="fill:#FFFFFF;fill-opacity:1" d="M20.2 -13.65Q20.2 -21.35 14.65 -21.35Q9.25 -21.35 9.25 -13.25Q9.25 -9.8 10.45 -7.95Q12.5 -6 14.7 -6Q16.9 -6 18.35 -7.8Q20.2 -9.95 20.2 -13.65M8.9 -24.35Q9.4 -24.1 9.4 -25.15L9.4 -25.4Q9.55 -25.85 9.9 -26.4Q11.2 -28.55 16.4 -28.55Q19.9 -28.55 22.95 -26.45Q25.95 -24.35 27.25 -21.15Q28.5 -17.95 28.5 -13.65Q28.5 -7.8 25.25 -3.65Q22.75 0.65 17 0.7L16.95 0.7Q12.25 0.7 9.6 -2.85L9.6 -3.5L8.9 -3.5Q9.15 -3.1 9.6 -2.85L9.6 9.3L1.55 9.3L1.55 -27.75L9.4 -27.75L9.4 -25.4Q8.65 -24.3 8.9 -24.35" />
</g>
<g id="PathID_10" transform="matrix(0.695692, 0, 0, 0.695692, 629.8, 215.45)" opacity="1">
</g>
<g id="PathID_11" transform="matrix(0.695692, 0, 0, 0.695692, 650.7, 215.45)" opacity="1">
<path style="fill:#FFFFFF;fill-opacity:1" d="M18.75 -16.95Q18.55 -18.95 17.1 -20.35Q15.65 -21.75 13.8 -21.75Q12 -21.75 10.7 -20.45Q9.2 -19 8.85 -16.95L18.75 -16.95M27 -11.5L8.6 -11.5Q8.8 -8.9 10.55 -7.25Q12 -5.85 14.1 -5.85Q15.65 -5.85 16.85 -6.6Q18.1 -7.3 18.55 -8.8L26.65 -8.8Q25.4 -3.95 22.15 -1.6Q18.9 0.7 14.45 0.7Q0.55 0.7 0.55 -14.4Q0.55 -20.75 4.05 -24.6Q7.6 -28.45 13.95 -28.45Q27 -28.45 27 -11.5" />
</g>
<g id="PathID_12" transform="matrix(0.695692, 0, 0, 0.695692, 650.7, 215.45)" opacity="1">
</g>
<g id="PathID_13" transform="matrix(0.695692, 0, 0, 0.695692, 670.6, 215.45)" opacity="1">
<path style="fill:#FFFFFF;fill-opacity:1" d="M18.1 -20.15Q16.5 -20.3 15.65 -20.3Q9.7 -20.3 9.7 -14.4L9.7 0L1.6 0L1.6 -27.75L9.3 -27.75L9.3 -25.2Q9.3 -24.55 8.65 -24.55Q10.65 -26.65 11.95 -27.35Q13.7 -28.35 16.65 -28.35L18.1 -28.35L18.1 -20.15" />
</g>
<g id="PathID_14" transform="matrix(0.695692, 0, 0, 0.695692, 670.6, 215.45)" opacity="1">
</g>
<g id="PathID_15" transform="matrix(0.695692, 0, 0, 0.695692, 684.35, 215.45)" opacity="1">
<path style="fill:#FFFFFF;fill-opacity:1" d="M26.5 -2.55Q25.25 -0.55 22.65 0.25Q20.4 1 16.85 1Q8.85 0.95 4.2 -5.05Q0 -10.45 0 -18.55Q0 -26.85 4.5 -32.3Q6.8 -35.05 10.4 -36.45Q14.2 -38 18.25 -38Q24.55 -38 29.05 -34.9Q34.05 -31.35 34.5 -24.9L26 -24.9Q25.65 -27.65 23.45 -29.2Q21.2 -30.75 18.25 -30.75Q14.35 -30.75 11.75 -27.95Q8.7 -24.65 8.7 -18.25Q8.7 -12.3 10.9 -9.2Q14.35 -6.3 18.2 -6.3Q21.6 -6.3 23.95 -8.35Q26.5 -10.5 26.5 -13.35L18.55 -13.35L18.55 -20.4L34.6 -20.4L34.6 -0.05Q34.6 2.45 35.6 3.75Q36.65 5.05 37.9 5.05Q39.2 5.05 40.15 3.85Q41.15 2.45 41.15 -0.55L48.75 -0.55Q48.75 5.75 45.1 9.3Q41.9 12.4 37.3 12.4Q32.85 12.4 29.7 8.85Q26.5 6.4 26.5 1L26.5 -2.55" />
</g>
<g id="PathID_16" transform="matrix(0.695692, 0, 0, 0.695692, 684.35, 215.45)" opacity="1">
</g>
<g id="PathID_17" transform="matrix(0.695692, 0, 0, 0.695692, 710.9, 215.45)" opacity="1">
<path style="fill:#FFFFFF;fill-opacity:1" d="M21 -13.85Q21 -21.45 15.05 -21.45Q9.1 -21.45 9.1 -13.85Q9.1 -6.2 15.05 -6.2Q21 -6.2 21 -13.85M29.2 -13.85Q29.2 -7.25 25.4 -3.3Q21.55 0.7 15.05 0.7Q8.45 0.7 4.6 -3.3Q0.8 -7.35 0.8 -13.85Q0.8 -20.35 4.6 -24.4Q8.4 -28.45 15.05 -28.45Q21.7 -28.45 25.65 -23.75Q29.2 -20.3 29.2 -13.85" />
</g>
<g id="PathID_18" transform="matrix(0.695692, 0, 0, 0.695692, 710.9, 215.45)" opacity="1">
</g>
<g id="PathID_19" transform="matrix(0.695692, 0, 0, 0.695692, 732.5, 215.45)" opacity="1">
<path style="fill:#FFFFFF;fill-opacity:1" d="M9.1 0L0.75 0L0.75 -8.05L9.1 -8.05L9.1 0M9.25 -37.1Q9.45 -34.65 9.45 -32.5Q9.45 -23.5 7.25 -10L2.65 -10Q0.45 -23.45 0.45 -32.65L0.55 -37.1L9.25 -37.1" />
</g>
<g id="PathID_20" transform="matrix(0.695692, 0, 0, 0.695692, 732.5, 215.45)" opacity="1">
</g>
<g id="PathID_21" transform="matrix(1.44064, 3.23012e-007, -3.23012e-007, 1.44064, 98.8, 98.8)" opacity="1">
<path style="fill:#FF7373;fill-opacity:1" d="M-26.65 -26.65Q-37.65 -15.55 -37.65 0Q-37.65 15.55 -26.65 26.55Q-15.6 37.65 0 37.65Q15.55 37.65 26.55 26.65L26.6 26.55Q32.55 20.6 35.15 13.3L57.85 36.3Q53.95 42.7 48.3 48.35Q28.25 68.4 0 68.4Q-28.35 68.4 -48.4 48.35Q-68.4 28.35 -68.4 0Q-68.4 -28.3 -48.4 -48.35L-48.35 -48.4Q-42.4 -54.35 -35.55 -58.35L-12.85 -35.35Q-20.5 -32.8 -26.65 -26.65" />
</g>
<g id="PathID_22" transform="matrix(1.44064, 3.23012e-007, -3.23012e-007, 1.44064, 98.8, 98.8)" opacity="1">
</g>
<g id="PathID_23" transform="matrix(1.44064, 3.23012e-007, -3.23012e-007, 1.44064, 98.8, 98.8)" opacity="1">
<path style="fill:#4FC3F7;fill-opacity:1" d="M0 -68.4Q28.35 -68.4 48.3 -48.4Q68.35 -28.35 68.35 0Q68.35 14.2 63.1 26.2L37.55 0.65L37.6 0Q37.6 -15.55 26.55 -26.65Q15.55 -37.65 0 -37.65L-0.7 -37.6L-26.25 -63.15Q-14.2 -68.4 0 -68.4" />
</g>
<g id="PathID_24" transform="matrix(1.44064, 3.23012e-007, -3.23012e-007, 1.44064, 98.8, 98.8)" opacity="1">
</g>
<g id="PathID_25" transform="matrix(0.362715, 0.362715, -0.370852, 0.370852, 120.35, 120.6)" opacity="1">
<path style="fill:#FF7373;fill-opacity:1" d="M204.3 -42.55Q221.9 -42.55 234.35 -30.1Q246.85 -17.6 246.85 0Q246.85 17.6 234.35 30.05Q221.9 42.55 204.3 42.55L60.95 42.55L60.95 -42.55L204.3 -42.55" />
</g>
<g id="PathID_26" transform="matrix(0.362715, 0.362715, -0.370852, 0.370852, 120.35, 120.6)" opacity="1">
</g>
<g id="PathID_27" transform="matrix(0.362715, 0.362715, -0.370852, 0.370852, 180.55, 180.8)" opacity="1">
<path style="fill:#FF7373;fill-opacity:1" d="M-204.25 42.55Q-221.85 42.55 -234.35 30.05Q-246.8 17.6 -246.8 0Q-246.8 -17.6 -234.35 -30.1Q-221.85 -42.55 -204.25 -42.55L-12.5 -42.55L-12.5 42.55L-204.25 42.55" />
</g>
<g id="PathID_28" transform="matrix(0.362715, 0.362715, -0.370852, 0.370852, 180.55, 180.8)" opacity="1">
</g>
<g id="PathID_29" transform="matrix(0.439349, 8.07531e-008, -9.69037e-008, 0.439349, 231.55, 232)" opacity="1">
<path style="fill:#FF7373;fill-opacity:1" d="M36 -36.1Q51 -21.1 51 0Q51 21.1 36 36Q21.1 51 0 51Q-21.1 51 -36.1 36Q-51 21.1 -51 0Q-51 -21.1 -36.1 -36.1Q-21.1 -51 0 -51Q21.1 -51 36 -36.1" />
</g>
<g id="PathID_30" transform="matrix(0.439349, 8.07531e-008, -9.69037e-008, 0.439349, 231.55, 232)" opacity="1">
</g>
</svg>
